<svg width="22" height="19" viewBox="0 0 22 19" fill="none" xmlns="http://www.w3.org/2000/svg">
<path d="M7 5.66669V4.66669M7 10.1667V9.16669M7 14.6667V13.6667M5.8 17.6667H16.2C17.8802 17.6667 18.7202 17.6667 19.362 17.3397C19.9265 17.0521 20.3854 16.5931 20.673 16.0287C21 15.3869 21 14.5468 21 12.8667V6.46669C21 4.78653 21 3.94645 20.673 3.30472C20.3854 2.74023 19.9265 2.28129 19.362 1.99367C18.7202 1.66669 17.8802 1.66669 16.2 1.66669H5.8C4.11984 1.66669 3.27976 1.66669 2.63803 1.99367C2.07354 2.28129 1.6146 2.74023 1.32698 3.30472C1 3.94645 1 4.78653 1 6.46669V12.8667C1 14.5468 1 15.3869 1.32698 16.0287C1.6146 16.5931 2.07354 17.0521 2.63803 17.3397C3.27976 17.6667 4.11984 17.6667 5.8 17.6667Z" stroke="#EAAA08" stroke-width="2" stroke-linecap="round" stroke-linejoin="round"/>
</svg>
