<svg width="20" height="22" viewBox="0 0 20 22" fill="none" xmlns="http://www.w3.org/2000/svg">
<path d="M1 10.2318C1 9.65741 1 9.37024 1.07403 9.10577C1.1396 8.8715 1.24737 8.65116 1.39203 8.45557C1.55534 8.23477 1.78202 8.05846 2.23539 7.70584L9.0177 2.43072C9.36902 2.15746 9.54468 2.02084 9.73865 1.96832C9.9098 1.92198 10.0902 1.92198 10.2613 1.96832C10.4553 2.02084 10.631 2.15746 10.9823 2.43072L17.7646 7.70584C18.218 8.05846 18.4447 8.23477 18.608 8.45557C18.7526 8.65116 18.8604 8.8715 18.926 9.10577C19 9.37024 19 9.65741 19 10.2318V17.4667C19 18.5868 19 19.1469 18.782 19.5747C18.5903 19.951 18.2843 20.257 17.908 20.4487C17.4802 20.6667 16.9201 20.6667 15.8 20.6667H4.2C3.07989 20.6667 2.51984 20.6667 2.09202 20.4487C1.71569 20.257 1.40973 19.951 1.21799 19.5747C1 19.1469 1 18.5868 1 17.4667V10.2318Z" stroke="#EAAA08" stroke-width="2" stroke-linecap="round" stroke-linejoin="round"/>
</svg>
