<svg width="22" height="19" viewBox="0 0 22 19" fill="none" xmlns="http://www.w3.org/2000/svg">
<path d="M13 4.66669H15.3373C15.5818 4.66669 15.7041 4.66669 15.8192 4.69432C15.9213 4.71881 16.0188 4.75922 16.1083 4.81405C16.2092 4.87589 16.2957 4.96236 16.4686 5.13532L20.5314 9.19806C20.7043 9.37101 20.7908 9.45749 20.8526 9.5584C20.9075 9.64787 20.9479 9.74542 20.9724 9.84746C21 9.96254 21 10.0848 21 10.3294V13.1667C21 13.6326 21 13.8656 20.9239 14.0494C20.8224 14.2944 20.6277 14.4891 20.3827 14.5906C20.1989 14.6667 19.9659 14.6667 19.5 14.6667M14.5 14.6667H13M13 14.6667V4.86669C13 3.74658 13 3.18653 12.782 2.75871C12.5903 2.38238 12.2843 2.07642 11.908 1.88467C11.4802 1.66669 10.9201 1.66669 9.8 1.66669H4.2C3.0799 1.66669 2.51984 1.66669 2.09202 1.88467C1.71569 2.07642 1.40973 2.38238 1.21799 2.75871C1 3.18653 1 3.74658 1 4.86669V12.6667C1 13.7713 1.89543 14.6667 3 14.6667M13 14.6667H9M9 14.6667C9 16.3235 7.65685 17.6667 6 17.6667C4.34315 17.6667 3 16.3235 3 14.6667M9 14.6667C9 13.0098 7.65685 11.6667 6 11.6667C4.34315 11.6667 3 13.0098 3 14.6667M19.5 15.1667C19.5 16.5474 18.3807 17.6667 17 17.6667C15.6193 17.6667 14.5 16.5474 14.5 15.1667C14.5 13.786 15.6193 12.6667 17 12.6667C18.3807 12.6667 19.5 13.786 19.5 15.1667Z" stroke="#EAAA08" stroke-width="2" stroke-linecap="round" stroke-linejoin="round"/>
</svg>
