<svg width="18" height="23" viewBox="0 0 18 23" fill="none" xmlns="http://www.w3.org/2000/svg">
<path d="M11 1.93622V6.06676C11 6.62681 11 6.90684 11.109 7.12075C11.2049 7.30891 11.3578 7.46189 11.546 7.55776C11.7599 7.66676 12.0399 7.66676 12.6 7.66676H16.7305M13 12.6667H5M13 16.6667H5M7 8.66669H5M11 1.66669H5.8C4.11984 1.66669 3.27976 1.66669 2.63803 1.99367C2.07354 2.28129 1.6146 2.74023 1.32698 3.30472C1 3.94645 1 4.78653 1 6.46669V16.8667C1 18.5468 1 19.3869 1.32698 20.0287C1.6146 20.5931 2.07354 21.0521 2.63803 21.3397C3.27976 21.6667 4.11984 21.6667 5.8 21.6667H12.2C13.8802 21.6667 14.7202 21.6667 15.362 21.3397C15.9265 21.0521 16.3854 20.5931 16.673 20.0287C17 19.3869 17 18.5468 17 16.8667V7.66669L11 1.66669Z" stroke="#EAAA08" stroke-width="2" stroke-linecap="round" stroke-linejoin="round"/>
</svg>
