<svg width="20" height="21" viewBox="0 0 20 21" fill="none" xmlns="http://www.w3.org/2000/svg">
<path d="M9.99997 13.6667C6.8299 13.6667 4.01077 15.1973 2.21597 17.5727C1.82968 18.0839 1.63653 18.3395 1.64285 18.685C1.64773 18.9519 1.81533 19.2886 2.02534 19.4534C2.29716 19.6667 2.67384 19.6667 3.4272 19.6667H16.5727C17.3261 19.6667 17.7028 19.6667 17.9746 19.4534C18.1846 19.2886 18.3522 18.9519 18.3571 18.685C18.3634 18.3395 18.1703 18.0839 17.784 17.5727C15.9892 15.1973 13.17 13.6667 9.99997 13.6667Z" stroke="#EAAA08" stroke-width="2" stroke-linecap="round" stroke-linejoin="round"/>
<path d="M9.99997 10.6667C12.4853 10.6667 14.5 8.65197 14.5 6.16669C14.5 3.68141 12.4853 1.66669 9.99997 1.66669C7.51469 1.66669 5.49997 3.68141 5.49997 6.16669C5.49997 8.65197 7.51469 10.6667 9.99997 10.6667Z" stroke="#EAAA08" stroke-width="2" stroke-linecap="round" stroke-linejoin="round"/>
</svg>
