<svg width="22" height="19" viewBox="0 0 22 19" fill="none" xmlns="http://www.w3.org/2000/svg">
<path d="M19 7.16669V4.86669C19 3.74658 19 3.18653 18.782 2.75871C18.5903 2.38238 18.2843 2.07642 17.908 1.88468C17.4802 1.66669 16.9201 1.66669 15.8 1.66669H4.2C3.0799 1.66669 2.51984 1.66669 2.09202 1.88467C1.7157 2.07642 1.40973 2.38238 1.21799 2.75871C1 3.18653 1 3.74658 1 4.86669V14.4667C1 15.5868 1 16.1468 1.21799 16.5747C1.40973 16.951 1.71569 17.257 2.09202 17.4487C2.51984 17.6667 3.07989 17.6667 4.2 17.6667L15.8 17.6667C16.9201 17.6667 17.4802 17.6667 17.908 17.4487C18.2843 17.257 18.5903 16.951 18.782 16.5747C19 16.1468 19 15.5868 19 14.4667V12.1667M14 9.66669C14 9.20203 14 8.9697 14.0384 8.77651C14.1962 7.98313 14.8164 7.36293 15.6098 7.20512C15.803 7.16669 16.0353 7.16669 16.5 7.16669H18.5C18.9647 7.16669 19.197 7.16669 19.3902 7.20512C20.1836 7.36293 20.8038 7.98313 20.9616 8.77651C21 8.9697 21 9.20203 21 9.66669C21 10.1313 21 10.3637 20.9616 10.5569C20.8038 11.3502 20.1836 11.9704 19.3902 12.1283C19.197 12.1667 18.9647 12.1667 18.5 12.1667H16.5C16.0353 12.1667 15.803 12.1667 15.6098 12.1283C14.8164 11.9704 14.1962 11.3502 14.0384 10.5569C14 10.3637 14 10.1313 14 9.66669Z" stroke="#EAAA08" stroke-width="2" stroke-linecap="round" stroke-linejoin="round"/>
</svg>
