<svg width="20" height="21" viewBox="0 0 20 21" fill="none" xmlns="http://www.w3.org/2000/svg">
<path d="M15.5 5.16669L4.5 16.1667M6.5 9.16669V5.16669M4.5 7.16669H8.5M11.5 14.1667H15.5M5.8 19.6667H14.2C15.8802 19.6667 16.7202 19.6667 17.362 19.3397C17.9265 19.0521 18.3854 18.5931 18.673 18.0287C19 17.3869 19 16.5468 19 14.8667V6.46669C19 4.78653 19 3.94645 18.673 3.30472C18.3854 2.74023 17.9265 2.28129 17.362 1.99367C16.7202 1.66669 15.8802 1.66669 14.2 1.66669H5.8C4.11984 1.66669 3.27976 1.66669 2.63803 1.99367C2.07354 2.28129 1.6146 2.74023 1.32698 3.30472C1 3.94645 1 4.78653 1 6.46669V14.8667C1 16.5468 1 17.3869 1.32698 18.0287C1.6146 18.5931 2.07354 19.0521 2.63803 19.3397C3.27976 19.6667 4.11984 19.6667 5.8 19.6667Z" stroke="#EAAA08" stroke-width="2" stroke-linecap="round" stroke-linejoin="round"/>
</svg>
