<svg width="20" height="23" viewBox="0 0 20 23" fill="none" xmlns="http://www.w3.org/2000/svg">
<path d="M18.5 6.94444L9.99997 11.6667M9.99997 11.6667L1.49997 6.94444M9.99997 11.6667L10 21.1667M19 15.7252V7.60813C19 7.26549 19 7.09417 18.9495 6.94137C18.9049 6.80619 18.8318 6.68211 18.7354 6.57742C18.6263 6.45908 18.4766 6.37588 18.177 6.20948L10.777 2.09837C10.4934 1.94081 10.3516 1.86203 10.2015 1.83115C10.0685 1.80381 9.93146 1.80381 9.79855 1.83115C9.64838 1.86203 9.50658 1.94081 9.22297 2.09837L1.82297 6.20948C1.52345 6.37589 1.37369 6.45909 1.26463 6.57742C1.16816 6.68211 1.09515 6.8062 1.05048 6.94137C1 7.09417 1 7.26549 1 7.60813V15.7252C1 16.0679 1 16.2392 1.05048 16.392C1.09515 16.5272 1.16816 16.6513 1.26463 16.756C1.37369 16.8743 1.52345 16.9575 1.82297 17.1239L9.22297 21.235C9.50658 21.3926 9.64838 21.4713 9.79855 21.5022C9.93146 21.5296 10.0685 21.5296 10.2015 21.5022C10.3516 21.4713 10.4934 21.3926 10.777 21.235L18.177 17.1239C18.4766 16.9575 18.6263 16.8743 18.7354 16.756C18.8318 16.6513 18.9049 16.5272 18.9495 16.392C19 16.2392 19 16.0679 19 15.7252Z" stroke="#EAAA08" stroke-width="2" stroke-linecap="round" stroke-linejoin="round"/>
</svg>
