<svg width="22" height="21" viewBox="0 0 22 21" fill="none" xmlns="http://www.w3.org/2000/svg">
<path d="M10 9.66669H5.2C4.07989 9.66669 3.51984 9.66669 3.09202 9.88467C2.71569 10.0764 2.40973 10.3824 2.21799 10.7587C2 11.1865 2 11.7466 2 12.8667V19.6667M20 19.6667V4.86669C20 3.74658 20 3.18653 19.782 2.75871C19.5903 2.38238 19.2843 2.07642 18.908 1.88467C18.4802 1.66669 17.9201 1.66669 16.8 1.66669H13.2C12.0799 1.66669 11.5198 1.66669 11.092 1.88467C10.7157 2.07642 10.4097 2.38238 10.218 2.75871C10 3.18653 10 3.74658 10 4.86669V19.6667M21 19.6667H1M13.5 5.66669H16.5M13.5 9.66669H16.5M13.5 13.6667H16.5" stroke="#EAAA08" stroke-width="2" stroke-linecap="round" stroke-linejoin="round"/>
</svg>
