<svg width="230" height="43" viewBox="0 0 230 43" fill="none" xmlns="http://www.w3.org/2000/svg">
<path d="M19.8622 17.9366C18.9943 16.2523 17.7671 14.9429 16.1804 14.0031C14.5937 13.0634 12.8221 12.5962 10.8554 12.5962C8.80651 12.5962 6.95792 13.0737 5.29931 14.0288C3.64071 14.9839 2.34669 16.3036 1.40699 17.9828C0.472419 19.6619 0 21.5875 0 23.7442C0 25.9061 0.472419 27.8317 1.41212 29.5314C2.35183 31.2259 3.65098 32.5456 5.30445 33.4853C6.95792 34.425 8.81165 34.8923 10.8605 34.8923C12.7964 34.8923 14.5526 34.4353 16.1187 33.5264C17.6901 32.6124 18.9122 31.344 19.78 29.7162V34.7229H21.8853V12.7605H19.8622V17.9366ZM18.6657 28.5403C17.8955 29.9422 16.8428 31.0411 15.5077 31.8216C14.1777 32.6072 12.668 32.9975 10.9838 32.9975C9.29947 32.9975 7.78465 32.6072 6.43928 31.8216C5.09391 31.0359 4.03097 29.9422 3.26072 28.5403C2.49047 27.1385 2.10535 25.5363 2.10535 23.7442C2.10535 21.9521 2.49047 20.35 3.26072 18.9481C4.03097 17.5463 5.08878 16.4525 6.43928 15.6669C7.78465 14.8812 9.29947 14.491 10.9838 14.491C12.668 14.491 14.1777 14.8864 15.5077 15.6669C16.8376 16.4525 17.8903 17.5463 18.6657 18.9481C19.436 20.35 19.8211 21.9521 19.8211 23.7442C19.8211 25.5363 19.436 27.1385 18.6657 28.5403Z" fill="white"/>
<path d="M36.5662 3.33261C34.6303 3.33261 33.1309 3.88206 32.0628 4.97581C30.9948 6.06956 30.4659 7.54331 30.4659 9.39191V12.7605H26.4246V14.568H30.4659V34.728H32.5712V14.5731H39.5548V12.7656H32.525V9.56649C32.525 6.61901 33.9012 5.14526 36.6484 5.14526C38.0246 5.14526 39.1594 5.55093 40.058 6.36739L40.9002 4.77041C40.3969 4.29286 39.7551 3.93854 38.9848 3.6972C38.2146 3.46099 37.4084 3.33775 36.5662 3.33775V3.33261Z" fill="white"/>
<path d="M46.7079 17.5565V12.7604H44.6848V34.7279H46.7901V23.282C46.7901 20.5605 47.4782 18.4346 48.8544 16.9044C50.2305 15.3741 52.1356 14.609 54.5748 14.609L55.078 14.6501V12.5858C53.0291 12.5858 51.2884 13.0121 49.8608 13.8696C48.4282 14.7271 47.3755 15.9544 46.7028 17.5514L46.7079 17.5565Z" fill="white"/>
<path d="M72.3572 14.0236C70.6884 13.0685 68.8141 12.591 66.7396 12.591C64.6599 12.591 62.7907 13.0685 61.1219 14.0236C59.453 14.9787 58.1384 16.3036 57.1885 17.9981C56.2334 19.6978 55.7558 21.6132 55.7558 23.7442C55.7558 25.8752 56.2334 27.7906 57.1885 29.4851C58.1436 31.1848 59.453 32.5096 61.1219 33.4647C62.7907 34.4198 64.665 34.8922 66.7396 34.8922C68.8141 34.8922 70.6884 34.4147 72.3572 33.4647C74.0261 32.5096 75.3407 31.1848 76.2906 29.4851C77.2458 27.7906 77.7233 25.8752 77.7233 23.7442C77.7233 21.6132 77.2458 19.6978 76.2906 17.9981C75.3355 16.3036 74.0261 14.9736 72.3572 14.0236ZM74.4215 28.5403C73.6512 29.9421 72.5986 31.041 71.2635 31.8215C69.9335 32.6072 68.4238 32.9974 66.7396 32.9974C65.0553 32.9974 63.5456 32.6072 62.2156 31.8215C60.8805 31.0359 59.8278 29.9421 59.0576 28.5403C58.2874 27.1384 57.9022 25.5363 57.9022 23.7442C57.9022 21.9521 58.2874 20.3499 59.0576 18.9481C59.8278 17.5462 60.8805 16.4525 62.2156 15.6668C63.5456 14.8812 65.0553 14.4909 66.7396 14.4909C68.4238 14.4909 69.9284 14.8863 71.2635 15.6668C72.5934 16.4525 73.6512 17.5462 74.4215 18.9481C75.1917 20.3499 75.5769 21.9521 75.5769 23.7442C75.5769 25.5363 75.1917 27.1384 74.4215 28.5403Z" fill="white"/>
<path d="M96.7997 22.4502C95.6546 22.1113 94.1809 21.7877 92.3836 21.4899C90.7764 21.2434 89.6056 20.9867 88.8662 20.7145C88.1319 20.4424 87.7621 19.9648 87.7621 19.2819C87.7621 18.6811 88.1011 18.1932 88.784 17.8133C89.467 17.4281 90.4888 17.2381 91.8496 17.2381C94.1398 17.2381 96.2503 17.7824 98.1862 18.8762L100.312 14.3369C99.3005 13.7361 98.027 13.2688 96.4916 12.9247C94.9511 12.5858 93.4055 12.4164 91.8496 12.4164C89.7494 12.4164 87.9316 12.7142 86.3911 13.315C84.8506 13.9158 83.6798 14.7528 82.8736 15.8312C82.0726 16.9095 81.6669 18.1419 81.6669 19.5283C81.6669 21.1921 82.0982 22.4707 82.9558 23.3693C83.8133 24.2679 84.8301 24.8944 86.0008 25.2487C87.1716 25.603 88.6608 25.9163 90.458 26.1884C91.9831 26.3784 93.1128 26.6095 93.8523 26.8817C94.5866 27.1538 94.9563 27.6057 94.9563 28.2322C94.9563 29.5673 93.6058 30.2348 90.9099 30.2348C89.5748 30.2348 88.214 30.0345 86.8224 29.6392C85.4309 29.2438 84.2447 28.7354 83.2639 28.1089L81.138 32.6893C82.1753 33.3723 83.5617 33.9371 85.3076 34.3839C87.0535 34.8306 88.8354 35.0617 90.6634 35.0617C92.815 35.0617 94.6738 34.769 96.2452 34.1836C97.8113 33.5982 99.0026 32.7715 99.8242 31.7086C100.641 30.6456 101.052 29.4338 101.052 28.0678C101.052 26.4606 100.63 25.2077 99.7832 24.309C98.9359 23.4104 97.9448 22.7891 96.7997 22.4502Z" fill="white"/>
<path d="M115.897 12.4113C114.48 12.4113 113.17 12.6372 111.974 13.0839C110.772 13.5307 109.75 14.1828 108.908 15.025V4.40067H102.53V34.7382H108.908V23.8623C108.908 21.9007 109.386 20.4218 110.341 19.4257C111.296 18.4295 112.575 17.9314 114.187 17.9314C115.63 17.9314 116.734 18.3627 117.499 19.2203C118.264 20.0778 118.644 21.3821 118.644 23.1229V34.7331H125.022V22.1421C125.022 18.9276 124.185 16.4987 122.506 14.8658C120.826 13.2329 118.629 12.4113 115.902 12.4113H115.897Z" fill="white"/>
<path d="M134.701 12.7399H128.323V34.7331H134.701V12.7399Z" fill="white"/>
<path d="M156.756 13.8234C155.082 12.8837 153.218 12.4164 151.174 12.4164C148.15 12.4164 145.844 13.3715 144.262 15.2766V12.7399H138.172V42.6666H144.55V32.4018C146.157 34.1733 148.365 35.0617 151.174 35.0617C153.218 35.0617 155.077 34.5893 156.756 33.6496C158.435 32.7099 159.744 31.385 160.7 29.6854C161.655 27.9805 162.132 25.9984 162.132 23.7339C162.132 21.4694 161.655 19.4873 160.7 17.7876C159.744 16.0879 158.43 14.7631 156.756 13.8234ZM154.101 28.1757C153.054 29.2797 151.708 29.8291 150.075 29.8291C148.442 29.8291 147.097 29.2746 146.049 28.1757C145.002 27.0717 144.478 25.5928 144.478 23.739C144.478 21.8853 145.002 20.4064 146.049 19.3024C147.097 18.1984 148.442 17.6438 150.075 17.6438C151.708 17.6438 153.054 18.1984 154.101 19.3024C155.149 20.4064 155.672 21.8853 155.672 23.739C155.672 25.5928 155.149 27.0717 154.101 28.1757Z" fill="white"/>
<path d="M182.513 13.8234C180.839 12.8837 178.975 12.4164 176.931 12.4164C173.907 12.4164 171.601 13.3715 170.02 15.2766V12.7399H163.93V42.6666H170.307V32.4018C171.914 34.1733 174.122 35.0617 176.931 35.0617C178.975 35.0617 180.834 34.5893 182.513 33.6496C184.192 32.7099 185.502 31.385 186.457 29.6854C187.412 27.9805 187.889 25.9984 187.889 23.7339C187.889 21.4694 187.412 19.4873 186.457 17.7876C185.502 16.0879 184.187 14.7631 182.513 13.8234ZM179.858 28.1757C178.811 29.2797 177.465 29.8291 175.832 29.8291C174.2 29.8291 172.854 29.2746 171.807 28.1757C170.759 27.0717 170.235 25.5928 170.235 23.739C170.235 21.8853 170.759 20.4064 171.807 19.3024C172.854 18.1984 174.2 17.6438 175.832 17.6438C177.465 17.6438 178.811 18.1984 179.858 19.3024C180.906 20.4064 181.43 21.8853 181.43 23.739C181.43 25.5928 180.906 27.0717 179.858 28.1757Z" fill="white"/>
<path d="M207.269 13.8028C205.523 12.8785 203.577 12.4113 201.425 12.4113C199.274 12.4113 197.22 12.8939 195.433 13.8645C193.646 14.835 192.244 16.1803 191.222 17.9108C190.2 19.6413 189.687 21.5824 189.687 23.7391C189.687 25.9214 190.205 27.8676 191.243 29.5827C192.28 31.3029 193.754 32.6431 195.659 33.6085C197.564 34.579 199.762 35.0617 202.242 35.0617C206.221 35.0617 209.246 33.8755 211.32 31.5032L207.926 27.8265C207.161 28.5608 206.339 29.1 205.451 29.4389C204.568 29.7778 203.551 29.9524 202.406 29.9524C200.742 29.9524 199.351 29.557 198.236 28.7662C197.117 27.9754 196.408 26.9022 196.111 25.5363H212.748C212.83 24.4734 212.871 23.9034 212.871 23.8212C212.871 21.531 212.373 19.5232 211.377 17.7927C210.381 16.0622 209.01 14.7323 207.269 13.808V13.8028ZM196.028 21.8186C196.244 20.4013 196.845 19.2819 197.826 18.4654C198.806 17.6489 200.018 17.2381 201.466 17.2381C202.914 17.2381 204.085 17.6541 205.066 18.486C206.047 19.3178 206.648 20.427 206.863 21.8186H196.028Z" fill="white"/>
<path d="M221.616 15.6412V12.7399H215.526V25.5466H221.904V24.3552C221.904 22.3115 222.422 20.7762 223.46 19.7543C224.497 18.7324 225.924 18.2189 227.752 18.2189C227.999 18.2189 228.476 18.2497 229.185 18.3011V12.4164C227.496 12.4164 226.001 12.6885 224.707 13.2328C223.413 13.7772 222.381 14.5833 221.621 15.6463L221.616 15.6412Z" fill="white"/>
<path d="M140.766 4.40069L132.057 0L134.475 4.44177L132.057 8.79624L140.766 4.40069Z" fill="#F7941D"/>
<path d="M131.826 4.40069L123.122 0L125.54 4.44177L123.122 8.79624L131.826 4.40069Z" fill="#F7941D"/>
<path d="M221.904 28.3554H215.526V34.7331H221.904V28.3554Z" fill="#F7941D"/>
</svg>
